<svg width="323" height="196" viewBox="0 0 323 196" fill="none" xmlns="http://www.w3.org/2000/svg">
<path d="M56.4756 114.273C87.6661 114.273 112.951 88.6637 112.951 57.4251C112.951 25.8696 138.493 1.37933e-06 170 0C201.507 -1.37935e-06 227.049 25.8696 227.049 57.4251C227.049 88.6637 252.334 114.273 283.524 114.273C314.715 114.273 340 139.879 340 171.117C340 202.669 314.454 228.53 282.951 228.53C251.449 228.53 225.902 202.377 225.902 170.826C225.902 139.905 200.874 114.273 170 114.273C139.126 114.273 114.098 139.905 114.098 170.826C114.098 202.377 88.5521 228.53 57.0491 228.53C25.5459 228.53 1.37705e-06 202.669 0 171.117C-1.36338e-06 139.879 25.2849 114.273 56.4756 114.273ZM170 239.958C201.507 239.958 227.049 265.539 227.049 297.094C227.049 328.65 201.507 354.231 170 354.231C138.493 354.231 112.951 328.65 112.951 297.094C112.951 265.539 138.493 239.958 170 239.958Z" fill="black" fill-opacity="0.04"/>
<path d="M170 240.458C201.23 240.458 226.549 265.815 226.549 297.095C226.549 328.375 201.23 353.73 170 353.73C138.77 353.73 113.451 328.375 113.451 297.095C113.451 265.815 138.77 240.458 170 240.458ZM170 0.5C201.227 0.499999 226.549 26.1416 226.549 57.4248C226.549 88.9355 252.054 114.773 283.524 114.773C314.435 114.773 339.5 140.151 339.5 171.117C339.5 202.397 314.174 228.03 282.951 228.03C251.732 228.03 226.403 202.108 226.402 170.826C226.402 139.636 201.157 113.773 170 113.773C138.843 113.773 113.598 139.636 113.598 170.826C113.597 202.108 88.2685 228.03 57.0488 228.03C25.8259 228.03 0.500191 202.397 0.5 171.117C0.499999 140.151 25.565 114.773 56.4756 114.773C87.9462 114.773 113.451 88.9355 113.451 57.4248C113.451 26.1416 138.773 0.50001 170 0.5Z" stroke="black" stroke-opacity="0.08"/>
</svg>
